<svg width="456" height="570" viewBox="0 0 456 570" fill="none" xmlns="http://www.w3.org/2000/svg">
<rect width="456" height="570" fill="black"/>
<rect x="23.3845" y="31.0908" width="404.22" height="501.6" fill="#25283D"/>
<path d="M250.667 365.698C249.74 371.809 255.882 373.906 257.193 374.503C298.673 390.892 384.14 391.032 394.167 260.482C394.602 257.617 394.305 251.516 389.64 250.026C344.164 236.939 252.704 241.751 250.667 365.698Z" fill="#308255"/>
<path d="M75.5708 161.863C67.2898 160.001 63.8002 168.308 62.8511 170.066C36.2351 225.955 27.474 344.293 205.358 370.53C209.24 371.403 217.63 371.57 220.139 365.25C242.632 303.516 245.209 176.412 75.5708 161.863Z" fill="#30B255"/>
</svg>
