<svg width="456" height="570" viewBox="0 0 456 570" fill="none" xmlns="http://www.w3.org/2000/svg">
<rect width="456" height="570" fill="black"/>
<rect x="23.3845" y="31.0908" width="404.22" height="501.6" fill="#25283D"/>
<path d="M215.783 358.7C215.783 358.7 214.725 358.7 180.116 358.7H124.943M199.629 244.82C196.31 215.573 171.037 192.831 140.352 192.831C107.41 192.831 80.7054 219.041 80.7054 251.373C80.7054 258.525 80.6086 264.165 83 270.5C83.1894 271.002 78.7005 270.887 75.7348 270.887C51.0285 270.887 31 290.545 31 314.794C31 339.043 51.0285 358.7 75.7348 358.7H83.1907" stroke="#E5E5E5" stroke-width="10" stroke-linecap="round"/>
<path d="M237 141V156.268M237 418.732V434M350.718 199.804L367 187.374M350.718 373.493L367 385.862M417 286.617H397M237 356.69C281.182 356.69 312.586 320.346 312.586 286.617C312.586 252.887 281.182 217.251 237 217.251" stroke="#FFD166" stroke-width="10" stroke-linecap="round" stroke-linejoin="round"/>
</svg>
